<?xml version="1.0" encoding="UTF-8"?>
<svg width="1438px" height="465px" viewBox="0 0 1438 465" version="1.1" xmlns="http://www.w3.org/2000/svg" xmlns:xlink="http://www.w3.org/1999/xlink">
    <title>wave2</title>
    <defs>
        <linearGradient x1="50%" y1="0%" x2="50%" y2="100%" id="linearGradient-1">
            <stop stop-color="#D23152" offset="0%"></stop>
            <stop stop-color="#421D9E" offset="100%"></stop>
        </linearGradient>
    </defs>
    <g id="1.0-Desktop-View" stroke="none" stroke-width="1" fill="none" fill-rule="evenodd">
        <g id="2.-Skills" transform="translate(-2.000000, -218.000000)" fill="url(#linearGradient-1)">
            <g id="Group-4" transform="translate(2.000000, 182.000000)">
                <path d="M42.0079588,246.74509 C74.5287889,121.831523 90.0076651,42.6249519 144.007335,42.6249519 C198.007004,42.6249519 282.506487,313.539552 437.005542,313.539552 C591.504596,313.539552 575.000955,36 731,36 C886.999045,36 788.001034,313.5 957,313.5 C1027.65034,313.5 1071.80591,388.94787 1114,405.5 C1172.73617,428.541351 1244.00027,379.865229 1288,430 C1317.33315,463.423181 1367.99982,487.089847 1440,501 L0,501 C6.32475253,414.772439 20.3274055,330.020802 42.0079588,246.74509 Z" id="wave2"></path>
            </g>
        </g>
    </g>
</svg>